<?xml version="1.0" standalone="no"?>
<!DOCTYPE svg PUBLIC "-//W3C//DTD SVG 20010904//EN"
 "http://www.w3.org/TR/2001/REC-SVG-20010904/DTD/svg10.dtd">
<svg version="1.0" xmlns="http://www.w3.org/2000/svg"
 width="137.000000pt" height="145.000000pt" viewBox="0 0 137.000000 145.000000"
 preserveAspectRatio="xMidYMid meet">

<g transform="translate(0.000000,145.000000) scale(0.100000,-0.100000)"
fill="#000000" stroke="none">
<path d="M670 1231 c-330 -146 -338 -151 -383 -200 -46 -51 -60 -105 -55 -208
7 -136 46 -175 238 -233 58 -18 108 -35 112 -38 4 -4 -48 -32 -115 -62 -202
-90 -241 -145 -235 -332 l3 -97 170 75 c94 41 227 100 297 130 203 89 248 144
248 302 0 159 -39 197 -273 268 -49 15 -85 30 -80 34 4 4 54 27 111 51 122 52
187 99 216 154 17 32 22 62 24 158 2 64 0 117 -5 116 -4 0 -127 -53 -273 -118z"/>
</g>
</svg>
